<svg
 width="352.000000pt" height="352.000000pt" viewBox="0 0 352.000000 352.000000"
 preserveAspectRatio="xMidYMid meet">
<g transform="translate(0.000000,352.000000) scale(0.100000,-0.100000)"
fill="#FFE0B5" stroke="none">
<path d="M20 1760 l0 -1740 1740 0 1740 0 0 1740 0 1740 -1740 0 -1740 0 0
-1740z m1210 70 l0 -1240 -25 0 -25 0 0 1240 0 1240 25 0 25 0 0 -1240z m-545
807 c73 -41 75 -51 75 -396 l0 -303 35 30 c40 36 83 46 161 40 63 -5 98 -27
125 -78 17 -30 19 -59 19 -212 l0 -178 -49 0 -49 0 -4 156 -3 156 -33 29 c-55
50 -143 33 -179 -34 -16 -29 -18 -75 -21 -494 l-3 -463 -49 0 -50 0 0 37 0 37
-21 -23 c-32 -34 -81 -51 -147 -51 -72 0 -116 17 -159 62 -45 47 -63 96 -63
176 0 133 73 222 190 230 83 6 125 -4 165 -40 l35 -30 0 476 0 477 -31 -23
c-24 -18 -47 -24 -107 -26 -68 -3 -81 -1 -112 20 -98 66 -88 199 17 244 20 9
70 14 134 14 l101 0 -6 28 c-4 15 -18 37 -32 50 -33 29 -109 30 -165 2 -45
-23 -53 -21 -75 22 -14 28 -14 31 3 44 36 27 100 42 178 43 65 1 87 -3 120
-22z m1513 -175 c3 -16 -2 -22 -17 -22 -26 0 -36 17 -20 36 16 19 33 13 37
-14z m370 0 c3 -16 -2 -22 -17 -22 -26 0 -36 17 -20 36 16 19 33 13 37 -14z
m602 12 c0 -18 -22 -42 -35 -38 -9 4 -15 0 -15 -10 0 -9 7 -16 15 -16 8 0 15
-5 15 -11 0 -5 10 -3 22 5 12 9 39 16 60 16 49 0 78 -28 78 -75 0 -49 -29 -75
-83 -75 -54 0 -81 26 -81 75 0 22 -5 35 -13 35 -9 0 -13 -17 -13 -55 0 -52 -1
-55 -25 -55 -24 0 -25 3 -25 55 0 30 -4 55 -10 55 -5 0 -10 7 -10 15 0 8 5 15
10 15 6 0 10 10 10 23 0 13 5 28 12 35 12 12 88 17 88 6z m-1691 -82 l32 -78
47 -1 47 -2 -35 17 c-25 12 -36 25 -38 43 -4 35 19 51 70 47 35 -2 43 -7 43
-23 0 -17 -6 -20 -40 -18 -40 3 -40 3 -10 -9 43 -15 55 -27 55 -53 0 -36 -21
-44 -103 -44 -66 0 -77 3 -82 20 -9 28 -90 28 -98 -1 -3 -14 -14 -20 -31 -20
-14 0 -26 2 -26 5 0 3 12 34 26 68 15 34 33 77 41 95 10 25 19 32 42 32 27 0
31 -6 60 -78z m981 43 c0 -18 5 -25 20 -25 11 0 20 -7 20 -15 0 -8 -9 -15 -20
-15 -16 0 -20 -7 -20 -36 0 -27 4 -35 14 -31 13 5 26 -12 26 -34 0 -10 -50
-12 -74 -3 -12 4 -16 20 -16 55 0 27 -4 49 -10 49 -5 0 -10 7 -10 15 0 8 5 15
10 15 6 0 10 11 10 25 0 20 5 25 25 25 20 0 25 -5 25 -25z m-675 -40 c0 -17
-6 -20 -35 -17 l-35 2 35 -18 c65 -32 49 -92 -24 -92 -49 0 -71 12 -63 33 4
12 16 15 44 11 l38 -5 -35 18 c-38 20 -50 53 -29 79 8 10 27 14 58 12 38 -3
46 -6 46 -23z m165 5 c12 -12 20 -33 20 -55 0 -49 -29 -75 -83 -75 -54 0 -81
25 -81 77 0 25 7 41 23 54 32 26 95 25 121 -1z m162 4 c17 -16 17 -18 1 -29
-12 -9 -22 -10 -34 -2 -24 15 -49 1 -49 -28 0 -29 25 -43 49 -28 12 8 22 7 34
-2 16 -11 16 -13 -1 -29 -23 -20 -81 -21 -110 0 -29 20 -31 85 -2 114 25 25
86 27 112 4z m88 -59 c0 -73 -1 -75 -25 -75 -24 0 -25 2 -25 75 0 73 1 75 25
75 24 0 25 -2 25 -75z m158 63 c7 -7 12 -39 12 -75 l0 -63 -58 0 c-64 0 -82
11 -82 51 0 29 15 39 61 39 16 0 29 5 29 11 0 8 -12 10 -35 6 -36 -6 -51 4
-41 28 7 19 96 21 114 3z m212 -63 c0 -73 -1 -75 -25 -75 -24 0 -25 2 -25 75
0 73 1 75 25 75 24 0 25 -2 25 -75z m170 55 c12 -12 20 -33 20 -55 0 -48 -29
-75 -79 -75 -54 0 -85 27 -85 75 0 27 6 43 23 56 32 26 95 25 121 -1z m185 -3
c9 -13 15 -43 15 -74 0 -50 -1 -53 -25 -53 -23 0 -25 4 -25 44 0 25 -6 48 -14
55 -22 18 -46 -13 -46 -60 0 -35 -3 -39 -25 -39 -24 0 -25 2 -25 74 l0 74 65
1 c55 0 67 -3 80 -22z m505 2 c0 -10 -4 -19 -9 -19 -22 0 -41 -34 -41 -71 0
-35 -3 -39 -25 -39 -24 0 -25 2 -25 74 l0 75 50 -1 c42 0 50 -3 50 -19z
m-1672 -267 c3 -16 -2 -22 -17 -22 -26 0 -36 17 -20 36 16 19 33 13 37 -14z
m272 -15 c0 -32 1 -32 39 -29 51 5 71 -22 71 -95 0 -50 -1 -53 -25 -53 -23 0
-25 4 -25 44 0 26 -6 48 -15 56 -25 20 -45 -5 -45 -56 0 -40 -2 -44 -25 -44
l-25 0 0 105 0 105 25 0 c22 0 25 -4 25 -33z m190 3 c0 -28 3 -30 37 -30 37 0
73 -23 73 -47 0 -7 5 -13 10 -13 6 0 10 6 10 14 0 23 41 46 82 46 49 0 78 -28
78 -75 0 -49 -29 -75 -82 -75 -42 0 -78 21 -78 47 0 7 -4 13 -10 13 -5 0 -10
-6 -10 -13 0 -30 -34 -46 -98 -46 l-62 1 0 104 0 104 25 0 c21 0 25 -5 25 -30z
m480 -4 c0 -34 0 -34 40 -29 58 8 70 -7 70 -83 0 -62 -1 -64 -25 -64 -23 0
-25 3 -25 49 0 34 -5 51 -15 55 -23 9 -45 -22 -45 -65 0 -35 -3 -39 -25 -39
l-25 0 0 105 0 105 25 0 c22 0 25 -4 25 -34z m650 -71 l0 -105 -63 0 c-75 0
-101 19 -101 75 0 50 29 78 76 73 37 -3 38 -3 38 29 0 29 3 33 25 33 l25 0 0
-105z m-1933 43 l38 -53 3 53 c3 48 5 52 28 52 24 0 24 -1 24 -100 0 -99 0
-100 -24 -100 -18 0 -35 14 -63 52 l-38 53 -3 -53 c-3 -48 -5 -52 -28 -52 -24
0 -24 1 -24 100 0 99 0 100 24 100 18 0 35 -14 63 -52z m255 -15 c10 -9 18
-29 18 -45 0 -27 -2 -28 -51 -28 -34 0 -48 -4 -43 -11 4 -7 20 -9 40 -6 21 4
37 1 44 -8 27 -32 -87 -50 -122 -18 -23 21 -24 89 -1 115 21 23 89 24 115 1z
m88 -58 c0 -73 -1 -75 -25 -75 -24 0 -25 2 -25 75 0 73 1 75 25 75 24 0 25 -2
25 -75z m190 3 c0 -102 -17 -128 -87 -128 -59 0 -75 8 -63 30 8 14 18 17 43
13 24 -4 37 0 47 13 14 16 13 16 -7 5 -28 -14 -70 -5 -83 19 -15 28 -12 81 6
101 13 14 31 18 80 18 l64 -1 0 -70z m690 53 c0 -10 -11 -23 -25 -29 -21 -10
-25 -18 -25 -57 0 -41 -2 -45 -25 -45 -24 0 -25 2 -25 74 l0 75 50 -1 c41 0
50 -3 50 -17z m328 3 c12 -8 22 -22 22 -30 0 -8 5 -14 10 -14 6 0 10 6 10 14
0 23 41 46 82 46 49 0 78 -28 78 -75 0 -49 -29 -75 -82 -75 -42 0 -78 21 -78
47 0 7 -4 13 -10 13 -5 0 -10 -5 -10 -12 0 -27 -34 -48 -77 -48 -54 0 -83 26
-83 75 0 47 29 75 78 75 21 0 48 -7 60 -16z m-2728 -100 l0 -36 35 30 c40 36
82 46 163 40 68 -5 112 -31 136 -82 13 -27 16 -68 16 -210 l0 -176 -50 0 -50
0 0 135 c0 147 -10 190 -51 219 -30 21 -82 20 -126 -1 -58 -27 -73 -74 -73
-225 l0 -128 -50 0 -50 0 0 235 0 235 50 0 50 0 0 -36z m2128 -182 c3 -16 -2
-22 -17 -22 -26 0 -36 17 -20 36 16 19 33 13 37 -14z m-920 -4 c18 -18 14 -46
-9 -69 -16 -16 -18 -24 -10 -32 9 -9 14 -9 20 1 4 7 15 10 24 6 20 -7 20 -9 7
-34 -7 -13 -6 -21 5 -30 12 -10 13 -16 4 -27 -10 -11 -15 -11 -29 2 -12 11
-20 13 -25 6 -10 -17 -76 -13 -97 6 -23 21 -23 55 0 76 13 12 17 26 14 47 -2
17 1 37 8 45 15 18 71 20 88 3z m202 -28 l0 -40 40 0 40 0 0 40 c0 36 3 40 25
40 l25 0 0 -100 0 -100 -25 0 c-22 0 -25 4 -25 40 l0 40 -40 0 -40 0 0 -40 c0
-36 -2 -40 -25 -40 l-25 0 0 100 0 100 25 0 c23 0 25 -4 25 -40z m300 -30 c12
-12 20 -33 20 -55 0 -49 -29 -75 -83 -75 -54 0 -81 25 -81 77 0 25 7 41 23 54
32 26 95 25 121 -1z m90 -24 c0 -25 6 -48 14 -55 22 -18 46 13 46 60 0 35 3
39 25 39 24 0 25 -2 25 -74 l0 -74 -65 -1 c-79 0 -95 16 -95 96 0 50 1 53 25
53 23 0 25 -4 25 -44z m255 19 c0 -17 -6 -20 -35 -17 l-35 2 35 -18 c65 -32
49 -92 -24 -92 -49 0 -71 12 -63 33 4 12 16 15 44 11 l38 -5 -35 18 c-38 20
-50 53 -29 79 8 10 27 14 58 12 38 -3 46 -6 46 -23z m75 -50 c0 -73 -1 -75
-25 -75 -24 0 -25 2 -25 75 0 73 1 75 25 75 24 0 25 -2 25 -75z m177 63 c8 -6
13 -34 13 -74 0 -62 -1 -64 -25 -64 -23 0 -25 3 -25 49 0 52 -8 65 -34 55 -12
-4 -16 -20 -16 -55 0 -46 -2 -49 -25 -49 -24 0 -25 2 -25 74 l0 74 62 1 c34 0
68 -5 75 -11z m193 -70 c0 -98 -12 -118 -74 -118 -66 0 -87 9 -76 30 8 14 18
17 49 13 21 -3 41 -1 44 5 4 5 -10 9 -34 8 -49 -1 -69 20 -69 73 0 55 22 71
97 71 l63 0 0 -82z m-670 -303 l0 -105 -25 0 -25 0 0 105 0 105 25 0 25 0 0
-105z m-597 83 c35 -18 46 -40 46 -88 0 -74 -33 -100 -128 -100 l-61 0 0 100
0 100 61 0 c33 0 70 -5 82 -12z m1707 -23 c0 -18 5 -25 20 -25 11 0 20 -7 20
-15 0 -8 -9 -15 -20 -15 -16 0 -20 -7 -20 -36 0 -27 4 -35 14 -31 13 5 26 -12
26 -34 0 -6 -19 -9 -42 -7 l-43 3 -3 53 c-2 28 -7 52 -13 52 -5 0 -9 7 -9 15
0 8 5 15 10 15 6 0 10 11 10 25 0 20 5 25 25 25 20 0 25 -5 25 -25z m-1518
-32 c10 -9 18 -29 18 -45 0 -27 -2 -28 -51 -28 -34 0 -48 -4 -43 -11 4 -7 20
-9 40 -6 21 4 37 1 44 -8 27 -32 -87 -50 -122 -18 -23 21 -24 89 -1 115 21 23
89 24 115 1z m86 -33 l15 -44 14 47 c11 40 17 47 38 47 14 0 25 -3 25 -7 0 -4
-12 -38 -26 -75 -23 -61 -28 -68 -54 -68 -25 0 -30 6 -50 63 -13 34 -25 68
-28 75 -3 10 3 13 23 10 24 -2 31 -11 43 -48z m224 33 c10 -9 18 -29 18 -45 0
-27 -2 -28 -51 -28 -34 0 -48 -4 -43 -11 4 -7 20 -9 40 -6 21 4 37 1 44 -8 27
-32 -87 -50 -122 -18 -23 21 -24 89 -1 115 21 23 89 24 115 1z m268 -3 c12
-12 20 -33 20 -55 0 -49 -29 -75 -83 -75 -54 0 -81 25 -81 77 0 25 7 41 23 54
32 26 95 25 121 -1z m196 -1 c24 -26 23 -82 -1 -109 -15 -17 -29 -21 -57 -18
-36 3 -38 2 -38 -24 0 -23 -4 -28 -25 -28 -25 0 -25 0 -25 99 l0 99 64 1 c51
0 67 -4 82 -20z m180 10 c8 -7 14 -6 19 1 3 5 21 10 40 10 46 0 65 -29 65 -97
0 -50 -1 -53 -25 -53 -23 0 -25 4 -25 44 0 25 -6 48 -14 55 -22 18 -46 -13
-46 -60 0 -35 -3 -39 -25 -39 -23 0 -25 3 -25 49 0 52 -8 65 -34 55 -12 -4
-16 -20 -16 -55 0 -46 -2 -49 -25 -49 -24 0 -25 2 -25 74 l0 74 62 1 c34 0 68
-5 74 -10z m276 -6 c10 -9 18 -29 18 -45 0 -27 -2 -28 -51 -28 -34 0 -48 -4
-43 -11 4 -7 20 -9 40 -6 21 4 37 1 44 -8 27 -32 -87 -50 -122 -18 -22 20 -24
80 -2 111 19 27 88 31 116 5z m183 -6 c9 -13 15 -43 15 -74 0 -50 -1 -53 -25
-53 -23 0 -25 4 -25 44 0 25 -6 48 -14 55 -22 18 -46 -13 -46 -60 0 -35 -3
-39 -25 -39 -24 0 -25 2 -25 74 l0 74 65 1 c55 0 67 -3 80 -22z"/>
<path d="M459 2369 c-11 -11 -18 -27 -15 -36 3 -8 6 -19 6 -24 0 -16 71 -41
99 -34 54 12 82 29 96 56 29 55 24 59 -75 59 -78 0 -93 -3 -111 -21z"/>
<path d="M450 1252 c-94 -47 -98 -197 -7 -252 93 -57 210 12 210 125 0 111
-105 177 -203 127z"/>
<path d="M3201 2362 c-13 -25 8 -56 35 -50 29 5 27 62 -3 66 -13 2 -26 -4 -32
-16z"/>
<path d="M1406 2384 c-10 -26 -7 -34 13 -34 14 0 18 5 14 20 -7 27 -20 34 -27
14z"/>
<path d="M1861 2362 c-13 -25 8 -56 35 -50 29 5 27 62 -3 66 -13 2 -26 -4 -32
-16z"/>
<path d="M2280 2322 c0 -14 11 -21 26 -15 21 8 17 23 -6 23 -11 0 -20 -4 -20
-8z"/>
<path d="M2651 2362 c-13 -25 8 -56 35 -50 29 5 27 62 -3 66 -13 2 -26 -4 -32
-16z"/>
<path d="M2224 2036 c-10 -25 0 -51 20 -54 27 -6 48 25 35 49 -12 22 -47 25
-55 5z"/>
<path d="M2401 2032 c-13 -25 8 -56 35 -50 29 5 27 62 -3 66 -13 2 -26 -4 -32
-16z"/>
<path d="M3241 2032 c-13 -25 8 -56 35 -50 29 5 27 62 -3 66 -13 2 -26 -4 -32
-16z"/>
<path d="M1595 2040 c-4 -6 5 -10 19 -10 14 0 26 5 26 10 0 6 -9 10 -19 10
-11 0 -23 -4 -26 -10z"/>
<path d="M1842 2038 c-16 -16 -15 -23 3 -42 28 -27 69 10 44 40 -14 17 -31 18
-47 2z"/>
<path d="M2884 2036 c-10 -25 0 -51 20 -54 27 -6 48 25 35 49 -12 22 -47 25
-55 5z"/>
<path d="M3061 2032 c-13 -25 8 -56 35 -50 29 5 27 62 -3 66 -13 2 -26 -4 -32
-16z"/>
<path d="M1370 1660 c0 -13 7 -20 20 -20 23 0 26 10 8 28 -18 18 -28 15 -28
-8z"/>
<path d="M1861 1692 c-13 -25 8 -56 35 -50 29 5 27 62 -3 66 -13 2 -26 -4 -32
-16z"/>
<path d="M2630 1691 c-7 -15 -6 -24 6 -36 9 -9 21 -14 27 -12 18 6 31 33 24
51 -9 22 -44 20 -57 -3z"/>
<path d="M1380 1360 c0 -56 2 -60 23 -60 34 0 67 28 67 56 0 31 -33 64 -65 64
-24 0 -25 -3 -25 -60z"/>
<path d="M1585 1360 c-4 -6 5 -10 19 -10 14 0 26 5 26 10 0 6 -9 10 -19 10
-11 0 -23 -4 -26 -10z"/>
<path d="M1895 1360 c-4 -6 5 -10 19 -10 14 0 26 5 26 10 0 6 -9 10 -19 10
-11 0 -23 -4 -26 -10z"/>
<path d="M2151 1352 c-13 -25 8 -56 35 -50 29 5 27 62 -3 66 -13 2 -26 -4 -32
-16z"/>
<path d="M2344 1356 c-10 -25 0 -51 20 -54 27 -6 48 25 35 49 -12 22 -47 25
-55 5z"/>
<path d="M2815 1360 c-4 -6 5 -10 19 -10 14 0 26 5 26 10 0 6 -9 10 -19 10
-11 0 -23 -4 -26 -10z"/>
</g>
</svg>
