<svg xmlns="http://www.w3.org/2000/svg" xmlns:xlink="http://www.w3.org/1999/xlink"
 width="400.000000pt" height="400.000000pt" viewBox="0 0 400.000000 400.000000"
 preserveAspectRatio="xMidYMid meet">

<g transform="translate(0.000000,400.000000) scale(0.100000,-0.100000)"
fill="#E3D7FF" stroke="none">
<path d="M0 2000 l0 -2000 2000 0 2000 0 0 2000 0 2000 -2000 0 -2000 0 0
-2000z m570 26 c0 -118 -15 -150 -74 -162 -34 -6 -96 17 -96 35 0 22 28 32 54
20 46 -21 59 3 57 105 -1 48 1 91 4 96 3 6 17 10 31 10 24 0 24 0 24 -104z
m188 9 c3 -95 16 -125 55 -125 45 0 57 26 57 127 l0 94 28 -3 c26 -3 27 -4 30
-79 4 -100 -13 -149 -58 -172 -47 -24 -105 -17 -139 17 -23 24 -26 35 -30 116
-4 106 1 123 31 118 22 -3 23 -8 26 -93z m448 80 c31 -13 33 -16 22 -35 -9
-14 -18 -18 -33 -13 -11 4 -33 7 -50 8 -23 0 -30 -4 -30 -19 0 -15 14 -24 56
-38 46 -15 59 -25 70 -50 24 -58 -31 -114 -103 -103 -76 11 -106 37 -74 64 12
10 20 9 40 -4 33 -22 81 -16 81 10 0 14 -13 24 -50 38 -27 10 -55 23 -62 29
-14 11 -17 76 -5 94 23 34 82 43 138 19z m354 -9 c0 -21 -5 -25 -37 -28 l-38
-3 -3 -102 c-3 -102 -3 -103 -27 -103 -25 0 -25 0 -25 105 l0 105 -40 0 c-32
0 -40 4 -40 18 0 10 3 22 7 25 3 4 51 7 105 7 97 0 98 0 98 -24z m165 12 c2
-7 15 -49 28 -93 l24 -80 30 90 c26 79 33 90 53 90 20 0 27 -10 49 -77 14 -42
29 -79 32 -83 4 -3 16 27 28 67 12 40 24 79 26 86 5 14 55 17 55 2 0 -12 -70
-220 -82 -242 -5 -10 -17 -18 -28 -18 -15 0 -25 18 -46 84 -15 47 -31 83 -35
80 -4 -2 -19 -40 -34 -85 -23 -70 -30 -80 -48 -77 -18 2 -29 25 -64 123 -24
66 -41 126 -38 133 2 6 14 12 25 12 11 0 23 -6 25 -12z m618 -2 c50 -21 70
-50 74 -109 5 -64 -18 -106 -72 -131 -55 -26 -109 -17 -153 27 -106 107 11
273 151 213z m391 -10 c22 -14 26 -24 26 -66 0 -42 -4 -52 -25 -66 l-25 -16
31 -44 30 -44 -33 0 c-28 0 -37 6 -58 40 -17 28 -32 40 -47 40 -20 0 -23 -5
-23 -40 0 -38 -2 -40 -30 -40 l-30 0 0 123 c0 68 3 127 8 131 13 14 149 0 176
-18z m216 -31 c0 -30 2 -55 4 -55 3 0 28 25 57 55 42 44 58 55 80 53 l29 -2
-28 -31 c-15 -16 -38 -42 -50 -56 l-22 -26 51 -69 51 -69 -29 -3 c-22 -3 -33
3 -53 29 -58 76 -56 74 -74 60 -10 -8 -16 -29 -16 -52 0 -36 -2 -39 -29 -39
l-29 0 3 128 c2 70 4 128 4 130 1 1 12 2 26 2 24 0 25 -3 25 -55z m429 44 c33
-12 40 -29 17 -48 -11 -9 -20 -9 -35 -2 -11 6 -32 11 -46 11 -22 0 -26 -4 -23
-22 2 -16 16 -27 51 -39 65 -23 77 -35 77 -75 0 -70 -74 -101 -155 -65 -47 21
-47 22 -30 41 16 18 20 18 47 4 40 -21 83 -15 83 11 0 14 -13 24 -50 38 -63
23 -85 43 -85 77 0 64 70 96 149 69z m221 -224 c0 -21 -5 -25 -30 -25 -25 0
-30 4 -30 25 0 21 5 25 30 25 25 0 30 -4 30 -25z"/>
<path d="M2235 2055 c-49 -49 -17 -145 49 -145 34 0 75 38 82 77 5 27 1 37
-24 63 -37 37 -74 39 -107 5z"/>
<path d="M2610 2040 c0 -40 0 -40 38 -40 41 0 62 14 62 42 0 22 -29 38 -69 38
-29 0 -31 -2 -31 -40z"/>
</g>
</svg>
